<svg xmlns="http://www.w3.org/2000/svg" width="512" height="512"><g transform="matrix(-26.32 0 0 26.32 271.5 -69.21)"><path fill="#292f33" d="M23.52 26.14s2.27 1.22 2.19 4.08c-.04 1.13-.25 2.1-.36 3.03-1.83 0-1.84 1.98-1.3 1.98h1.85c.93 0 3-3.16 3.38-7.28.38-4.12-5.76-1.81-5.76-1.81z"/><path fill="#fd9" d="M10.48 22.44s.7 2.28-.34 8c-.18 1.02-.46 2.06-.6 2.92-1.75 0-1.85 2-1.47 2h2.09c1.34 0 2.97-3.33 3.85-7.96s-3.53-4.96-3.53-4.96z"/><path fill="#fee5aa" d="M27.88 1.03h.07-.07zm.8.08zm.84.14.29.06c-.1-.02-.19-.05-.29-.06zm.73.17zm.82.26a3.08 3.08 0 0 1 .3 1.33 3.08 3.08 0 0 1-.21 1.1 4.84 4.84 0 0 1 2.39 2.98 3.53 3.53 0 0 1 1-.14 3.53 3.53 0 0 1 1.36.28c-.42-2.77-2.3-4.63-4.84-5.55zM27 3zm.88.06zm5.8 4.68zM7.82 7.8v.01zm-.07.26c-.13.07-.24.15-.37.2a18.7 18.7 0 0 0-4.72 2.72 5.08 5.08 0 0 0-1.16 3.15c0 2.7 4.05 3.35 5.4 3.4.26.02.53.16.8.38a4.16 4.16 0 0 1 3.13-1.42 4.16 4.16 0 0 1 4.16 4.16 4.16 4.16 0 0 1-3.92 4.15c.54 2.1.98 4.07 1.37 5.8a3.69 3.69 0 0 1 3.64-3.26V26.43s1.93.5 6.03-.2c2.45-.43 5.03.84 5.75 3.15.13.41.27.82.43 1.21a3.85 3.85 0 0 1 .38-.03 3.85 3.85 0 0 1 3.07 1.53c.04-2.28-.09-4.96.12-6.28.38-2.53 1.26-5.58-.23-8.8 1.13-.62 2-1.48 2.65-2.46a3.53 3.53 0 0 1-2.37-1.27c-.56.57-1.22.98-1.96 1.15-.16-.07-.34-.1-.5-.2l-.94-.45a4.72 4.72 0 0 1-1.18 3.4c-2.22 2.71-7.9 3.04-8.99 2.6-2.57-1.02-2.78-2.74-2.92-3.67a4.2 4.2 0 0 1 .3-2.04c-.65.1-1.16.1-1.5-.12a2.3 2.3 0 0 1-.87-1.07 3.85 3.85 0 0 1-5.97-3.22c0-.2.15-.85.37-1.6zm28.24.9v.14-.14zm-2.3.08zm-.05.51zm-29.78.22-.13.1.13-.1zm32.03.32-.04.26.04-.26zm-2.36.04zm-30.2.1zm32.5.23zm-2.43.2zm2.3.53zm-.2.76zm-22.33.42zm10.4.3h.11-.1zm.63.03.1.01h-.1zm.54.05.22.03-.22-.03zm.61.09zm.68.12zm.37.1zm.72.2zm7.77.22zm-7.08.01zm-10.22.12zm-1.45.37zm-8.11 4.25.14.16-.14-.16zm.25.3zm.22.27zm.53.81zm.46.8zm.38.78zm6.19 7.14-.02.5.02-.5zm-.08 1.51zm-3.4 1.45zm3.03 1.62-.05.24.05-.24zm-.28 1.2zm16.24.38zm-16.41.12-.05.12.05-.12zm16.27.51zm-.16.42-.02.04.02-.04zm-.09.14z"/><path fill="#fee5aa" d="m15.74 14.08-.12.04-.26.96v2.21l1.17 1.84 2.49 1.11.78-.15 4.73-.47 2.93-2.04 1.45-2.84-.26-.84-.12-.1-.1-.03-.74 2.14-1.67 2.06-4.58 1.67-3.76-.44-1.78-1.9-.37-2 .29-.85zM31.11 4.05l.1.07.33-1.38-.19-.83-.28-.22-.07-.03zM33.53 7.03l.04.1.78-.09 1.08.09.45.13v-.09l-.93-.26-.61-.03-.67.06zM31.93 13.25l-.07.1 1.01.93 1.36.3.03-.02.03-.06-1-.26-.88-.55z"/><path fill="#f8ab34" d="M34.55 6.95a3.53 3.53 0 0 0-1 .14 6.95 6.95 0 0 1-1.64 6.18 3.53 3.53 0 0 0 2.37 1.28 11.14 11.14 0 0 0 1.63-7.32 3.53 3.53 0 0 0-1.36-.28z"/><path fill="#292f33" d="M27 1a1 1 0 1 0 0 2c.93 0 2.67.25 4.15 1.1a3.08 3.08 0 0 0 .21-1.1 3.08 3.08 0 0 0-.3-1.32A11.96 11.96 0 0 0 27 1z"/><path fill="#fee5aa" d="m28.26 30.49.06.15H29l.96.2.87.46.85.84.03-.03V32l-.95-1.06-1.25-.42-.94-.08zM12.4 30.36l.06.33.27-.78.64-1.13 1.49-1.04.96-.26.23-.05.01-.24-1.59.25-1.52 1.04-.5 1.25z"/><path fill="#f8ab34" d="M28.66 30.56a3.85 3.85 0 0 0-.38.03c.5 1.24 1.08 2.38 1.44 3.27-1.6 0-1.55 2.04-1.09 2.04.79 0 1.8.02 2.19 0 .7-.02.87-1.75.9-3.81a3.85 3.85 0 0 0-3.06-1.53zM16.07 27.34a3.69 3.69 0 0 0-3.65 3.26c.28 1.22.53 2.34.75 3.2-1.65 0-1.8 2.1-1.35 2.1h2.23c1.35.02 2-4.49 2.02-8.56z"/><path fill="#fee5aa" d="m7.73 17.93-.07-.07.89-1.11 2.26-.54 2.64.6 1.39 1.81.32 2.42-.79 2.26-2.11 1.65-1.15-.02-.04-.1.04-.08 1.55-.55 1.53-1.19.45-1.18.18-1.55-.68-1.89-1.67-1.3-1.85-.41-2.05.7-.67.63z"/><path fill="#292f33" d="M10.82 16.49a4.16 4.16 0 0 0-3.13 1.42c1.15.95 2.33 3.48 2.79 4.7l.59 2.2a4.16 4.16 0 0 0 3.91-4.16 4.16 4.16 0 0 0-4.16-4.16z"/><path fill="#fee5aa" d="m8 8-.42-.01-.61 2.82 2.35 2.9 4.38.66-.35-1.32-.01-.15-.08-.1-3.73-.33z"/><path fill="#fee5aa" d="m2.66 10.98.28-.29 2.24-1.5L7.8 7.96l-.04.34-1.42.54-3.62 2.17z"/><path fill="#292f33" d="M6 5.13c-.65 0-1.28 2.27-1.6 4.23a7.8 7.8 0 0 0-1.75 1.62 18.7 18.7 0 0 1 4.72-2.72c.16-.06.28-.15.44-.24.23-.14-1.22-2.9-1.82-2.9z"/><path fill="#f8ab34" d="M9.6 4.23c-.83 0-2.23 4.76-2.23 5.44a3.85 3.85 0 0 0 5.98 3.22c-.5-1.18-.26-2.7-1.96-4.19-.33-1.84-1.08-4.47-1.8-4.47z"/><circle cx="5.99" cy="11.77" r=".9" fill="#292f33"/><path fill="#e75a70" d="M2.98 12.86c-.67.42-.67 1.78-1.01 1.78s-1.02-.8-1.02-1.78 2.87-.52 2.03 0z"/><path fill="#fee7b8" d="M6.58 14.34c-.04.03-.1.04-.14.03a6 6 0 0 0-2.55.14c-.13.05-.34-.02-.41-.19s.02-.36.15-.41c1.44-.57 2.86-.24 2.93-.22.14.03.2.19.2.37-.01.11-.11.23-.18.28zm-.47 2.34c-.05 0-.1 0-.15-.03a5.88 5.88 0 0 0-2.4-.85c-.14 0-.3-.16-.3-.35 0-.18.16-.33.3-.33 1.55.03 2.73.9 2.8.94.1.08.1.25.02.42-.05.1-.2.18-.27.2z"/><path fill="#7f676d" d="M4.4 9.36s.38-.27.88-.57c.22-.63.57-1.34.57-1.34s.3.6.34.81l.4-.19S6.5 5.8 5.5 5.55c0 0-.72 1.37-1.1 3.81z"/><path fill="#f18f26" d="M7.85 7.88s.38-.04.86.03c.22-.46.59-.88.59-.88s.28.67.38 1.18c.03.12.22.11.33.19 0 0 .03-3.47-.87-3.84 0 0-.75 1.12-1.29 3.32z"/><path fill="#fd9" d="M18.45 23.64c-2.65.57-2.38 2.78-2.38 2.78s1.93.5 6.04-.2a5.54 5.54 0 0 1 3.1.37c-1.6-3.05-4.31-3.48-6.76-2.95zM15.9 14.04c-.48.1-.88.13-1.21.08.2.3.7.79 1.21 1.23z"/><path fill="#f8ab34" d="M23.05 12.67c-3.1.05-5.67 1.1-7.33 1.4a4.2 4.2 0 0 0-.31 2.04c.14.93.35 2.65 2.92 3.67 1.1.43 6.77.1 9-2.6a4.72 4.72 0 0 0 1.17-3.4 12.66 12.66 0 0 0-5.45-1.1z"/><path fill="#f18f26" d="M23.12 12.68c-.18 0-.35 0-.52.02h-.02a15.11 15.11 0 0 0-.97.08h-.1l-.42.06-.08.01a22 22 0 0 0-1.85.37c.33 1.08 1.95 3.45 2.55 3.58.63.14 1.5-2.98 1.41-4.12zm1.22.04c.04.72.98 2.6 1.28 2.74.3.13 1.69-1.32 1.87-2.06-1.09-.38-2.14-.6-3.15-.68zm-6.56.85-.38.1-.27.07-.1.03a31.4 31.4 0 0 1-1.3.3c-.13.24-.21.56-.27.88.75.7 1.73 1.47 1.97 1.32.34-.2.6-2.05.35-2.7z"/></g><g transform="translate(248.2 -62.82) scale(25.98)"><path fill="#292f33" d="M10.48 22.44s.7 2.28-.34 8c-.18 1.02-.46 2.06-.6 2.92-1.75 0-1.85 2-1.47 2h2.09c1.34 0 2.97-3.33 3.85-7.96s-3.53-4.96-3.53-4.96zm13.04 3.7s2.27 1.22 2.19 4.08c-.04 1.13-.25 2.1-.36 3.03-1.83 0-1.84 1.98-1.3 1.98h1.85c.93 0 3-3.16 3.38-7.28.38-4.12-5.76-1.8-5.76-1.8z"/><path fill="#292f33" d="M36 8.45C36 3.53 31.86 1 27 1a1 1 0 1 0 0 2c1.8 0 6.72.93 6.72 5.45 0 2.88-1.57 5.46-3.77 5.98-.17-.07-.35-.1-.51-.2-7.24-3.91-13.46.9-15.23-.28-1.75-1.19-.54-3.26-2.83-5.25-.33-1.84-1.07-4.47-1.79-4.47-.55 0-1.27 1.82-1.74 3.65-.6-1.38-1.36-2.75-1.86-2.75-.64 0-1.28 2.27-1.6 4.23-1.67 1.15-2.9 2.81-2.9 4.77 0 2.7 4.05 3.35 5.4 3.4s3.02 3.57 3.58 5.08c1.25 4.37 2.06 8.7 2.7 11.18-1.65 0-1.8 2.11-1.35 2.11h2.23c1.38.01 2.03-4.7 2.03-8.85l-.02-.63s1.93.51 6.04-.2c2.45-.43 5.03.85 5.75 3.16.53 1.7 1.4 3.3 1.87 4.48-1.6 0-1.55 2.04-1.09 2.04h2.19c1.46-.05.64-7.57 1.03-10.1s1.26-5.58-.23-8.8C34.85 15.23 36 11.5 36 8.44z"/><circle cx="5.99" cy="11.77" r=".9" fill="#c3c914"/><path fill="#66757f" d="M2.98 12.86c-.67.42-.67 1.78-1.01 1.78s-1.02-.8-1.02-1.78 2.87-.52 2.03 0zm3.6 1.48c-.04.03-.1.04-.14.03a6 6 0 0 0-2.55.15c-.13.05-.34-.03-.41-.2s.02-.36.15-.41c1.44-.57 2.86-.23 2.93-.22.14.03.2.2.2.37-.01.12-.11.24-.18.28zm-.47 2.34c-.05.01-.1 0-.15-.03a5.88 5.88 0 0 0-2.4-.85c-.14 0-.3-.16-.3-.34 0-.19.16-.34.3-.34 1.55.03 2.73.9 2.8.94.1.08.1.26.02.43-.05.1-.2.18-.27.2z"/><path fill="#7f676d" d="M7.85 7.88s.38-.04.86.03c.22-.46.59-.88.59-.88s.28.67.38 1.18c.03.12.22.11.33.19 0 0 .03-3.47-.87-3.84 0 0-.75 1.12-1.29 3.32zM4.4 9.36s.38-.27.88-.57c.22-.63.57-1.34.57-1.34s.3.6.34.81l.4-.19S6.5 5.8 5.5 5.55c0 0-.72 1.37-1.1 3.81z"/><path fill="#66757f" d="M18.45 23.64c-2.65.57-2.38 2.78-2.38 2.78s1.93.5 6.04-.2a5.54 5.54 0 0 1 3.1.37c-1.6-3.05-4.31-3.48-6.76-2.95z"/><path fill="#292f33" d="M5.98 10.98s.33.35.31.78c0 .43-.25.83-.25.83s-.29-.35-.31-.82c-.03-.48.25-.79.25-.79z"/></g></svg>